# xmcd CD database file
#
# Track frame offsets:
#	150
#	19407
#	42352
#	65020
#	85730
#	103577
#	125172
#	148452
#	167745
#	181907
#	194102
#
# Disc length: 2868 seconds
#
# Revision: 0
# Processed by: cddbd v1.5.1PL0 Copyright (c) Steve Scherf et al.
# Submitted via: CDex 1.51
#
DISCID=aa0b320b
DTITLE=Red Norvo - Good Vibes
DYEAR=1997
DGENRE=Jazz
TTITLE0=Seven Come Eleven
TTITLE1=Lagwood Walk
TTITLE2=The Sergeant On A Furlough
TTITLE3=Too Marvelous For Words
TTITLE4=1-2-3-4 Jump
TTITLE5=Purple Feathers
TTITLE6=In A Mellow Tone
TTITLE7=Flying Home
TTITLE8=The Bass on the Barroom Floor
TTITLE9=Which Switch Witch
TTITLE10=Blue Skies
EXTD=YEAR: 1997
EXTT0=
EXTT1=
EXTT2=
EXTT3=
EXTT4=
EXTT5=
EXTT6=
EXTT7=
EXTT8=
EXTT9=
EXTT10=
PLAYORDER=
